Coordinates
version=1
nRows=19
nColumns=63
inDegrees=yes

Units are S.I. units (second, meters, Newtons, ...)
If the header above contains a line with 'inDegrees', this indicates whether rotational values are in degrees (yes) or radians (no).

endheader
time	pelvis_tilt	pelvis_list	pelvis_rotation	pelvis_tx	pelvis_ty	pelvis_tz	hip_flexion_r	hip_adduction_r	hip_rotation_r	knee_angle_r	knee_angle_r_beta	ankle_angle_r	subtalar_angle_r	mtp_angle_r	hip_flexion_l	hip_adduction_l	hip_rotation_l	knee_angle_l	knee_angle_l_beta	ankle_angle_l	subtalar_angle_l	mtp_angle_l	L5_S1_Flex_Ext	L5_S1_Lat_Bending	L5_S1_axial_rotation	L4_L5_Flex_Ext	L4_L5_Lat_Bending	L4_L5_axial_rotation	L3_L4_Flex_Ext	L3_L4_Lat_Bending	L3_L4_axial_rotation	L2_L3_Flex_Ext	L2_L3_Lat_Bending	L2_L3_axial_rotation	L1_L2_Flex_Ext	L1_L2_Lat_Bending	L1_L2_axial_rotation	L1_T12_Flex_Ext	L1_T12_Lat_Bending	L1_T12_axial_rotation	Abs_r3	Abs_r2	Abs_r1	Abs_t1	Abs_t2	neck_flexion	neck_bending	neck_rotation	arm_flex_r	arm_add_r	arm_rot_r	elbow_flex_r	pro_sup_r	wrist_flex_r	wrist_dev_r	arm_flex_l	arm_add_l	arm_rot_l	elbow_flex_l	pro_sup_l	wrist_flex_l	wrist_dev_l
2.050000	-1.781548	-5.637975	81.504993	0.153228	1.060884	0.324619	-3.601836	2.978620	9.031938	0.675675	0.011793	21.867055	-4.693425	0.000000	-3.106041	-3.266691	-9.754706	2.401237	0.041909	25.722800	6.000588	0.000000	-0.311031	0.263850	-0.511313	-0.577615	0.350921	-0.543271	-0.510992	0.641526	-0.543271	-0.355477	0.641526	-0.447399	-0.288823	0.538044	-0.415442	-0.177723	0.408704	-0.383485	-2.221661	2.984729	-2.843772	0.000000	0.000000	4.755562	-1.591072	1.371568	28.033518	-8.733490	16.425332	149.788907	89.339123	-18.699085	1.969112	28.217270	-3.235869	3.418246	146.980607	89.052609	-3.509570	0.027753
2.066667	-1.886411	-5.457369	81.339521	0.154103	1.060925	0.324839	-3.757874	2.881901	9.285346	0.701922	0.012251	21.868869	-4.981801	0.000000	-3.229443	-3.188906	-10.370160	2.559884	0.044678	25.748525	6.577986	0.000000	-0.335839	0.241228	-0.465792	-0.623687	0.320833	-0.494904	-0.551750	0.586522	-0.494904	-0.383831	0.586522	-0.407568	-0.311860	0.491912	-0.378456	-0.191899	0.373662	-0.349344	-2.398866	2.728820	-2.590593	0.000000	0.000000	3.095560	-1.604277	1.390338	27.356752	-8.775215	16.427177	149.809112	89.355450	-19.414695	1.018706	27.535633	-3.471935	2.703321	147.234753	89.143935	-2.822378	0.171472
2.083333	-1.980381	-5.300176	81.196235	0.154913	1.061023	0.325021	-3.889939	2.795386	9.500701	0.735326	0.012834	21.849951	-5.245442	0.000000	-3.315028	-3.124960	-10.957861	2.748460	0.047970	25.801612	7.165726	0.000000	-0.357452	0.221543	-0.426294	-0.663825	0.294652	-0.452937	-0.587258	0.538660	-0.452937	-0.408532	0.538660	-0.373007	-0.331930	0.451771	-0.346364	-0.204248	0.343170	-0.319720	-2.553246	2.506139	-2.370918	0.000000	0.000000	1.656158	-1.516535	1.538400	26.718756	-8.820093	16.480803	149.810854	89.362565	-20.063468	0.177709	26.827931	-3.713856	1.969758	147.500569	89.223431	-2.217494	0.359344
2.100000	-2.056881	-5.172834	81.085339	0.155600	1.061183	0.325136	-3.984554	2.725056	9.569206	0.794317	0.013863	21.839485	-5.370743	0.000000	-3.367674	-3.077665	-11.427047	2.940885	0.051328	25.869523	7.704264	0.000000	-0.374735	0.205343	-0.389635	-0.695921	0.273107	-0.413987	-0.615653	0.499272	-0.413987	-0.428285	0.499272	-0.340930	-0.347979	0.418736	-0.316578	-0.214124	0.318077	-0.292226	-2.676696	2.322885	-2.167031	0.000000	0.000000	0.484965	-1.380735	1.702867	26.120856	-8.870929	16.526363	149.802298	89.372145	-20.637054	-0.606121	26.111276	-3.938767	1.273203	147.791254	89.278578	-1.659355	0.674682
2.116667	-2.113902	-5.077863	80.996241	0.156187	1.061397	0.325170	-4.044839	2.675281	9.689041	0.867883	0.015147	21.782597	-5.612270	0.000000	-3.384925	-3.049119	-11.747563	3.142410	0.054845	25.965936	8.129396	0.000000	-0.386716	0.193123	-0.354044	-0.718171	0.256853	-0.376172	-0.635336	0.469559	-0.376172	-0.441978	0.469559	-0.309789	-0.359105	0.393816	-0.287661	-0.220970	0.299147	-0.265533	-2.762275	2.184644	-1.969089	0.000000	0.000000	-0.447533	-1.164858	1.914628	25.601910	-8.942692	16.593159	149.787060	89.371657	-21.190996	-1.390550	25.401520	-4.153358	0.651850	148.098543	89.298922	-1.248666	1.069929
2.133333	-2.151191	-5.010468	80.927676	0.156659	1.061652	0.325137	-4.071362	2.643929	9.729860	0.963616	0.016818	21.728144	-5.778990	0.000000	-3.380107	-3.039093	-11.989114	3.330631	0.058130	26.087441	8.543760	0.000000	-0.394174	0.184554	-0.319717	-0.732020	0.245457	-0.339699	-0.647588	0.448725	-0.339699	-0.450501	0.448725	-0.279752	-0.366030	0.376343	-0.259770	-0.225231	0.285875	-0.239788	-2.815543	2.087716	-1.778170	0.000000	0.000000	-1.106208	-0.934243	2.102730	25.165246	-9.026832	16.618971	149.774534	89.368631	-21.654873	-2.078975	24.740174	-4.355977	0.150163	148.403159	89.281344	-1.021681	1.534010
2.150000	-2.166418	-4.969196	80.890194	0.156988	1.061923	0.325034	-4.069005	2.631767	9.668329	1.076422	0.018787	21.690814	-5.836117	0.000000	-3.360654	-3.043632	-12.039083	3.488028	0.060878	26.199110	8.774160	0.000000	-0.396754	0.179881	-0.289288	-0.736812	0.239241	-0.307369	-0.651827	0.437362	-0.307369	-0.453450	0.437362	-0.253127	-0.368426	0.366812	-0.235047	-0.226705	0.278635	-0.216966	-2.833974	2.034845	-1.608934	0.000000	0.000000	-1.500367	-0.752289	2.215879	24.834360	-9.131641	16.626818	149.769112	89.363496	-22.128432	-2.654958	24.158046	-4.531905	-0.216170	148.677101	89.239657	-0.939254	2.067797
2.166667	-2.166148	-4.948790	80.871068	0.157205	1.062183	0.324887	-4.042087	2.632638	9.522529	1.204079	0.021015	21.679182	-5.789134	0.000000	-3.333655	-3.055975	-11.916163	3.615819	0.063108	26.282898	8.811934	0.000000	-0.395111	0.177561	-0.260761	-0.733761	0.236156	-0.277059	-0.649128	0.431722	-0.277059	-0.451573	0.431722	-0.228166	-0.366900	0.362082	-0.211869	-0.225767	0.275042	-0.195571	-2.822240	2.008605	-1.450276	0.000000	0.000000	-1.663581	-0.632144	2.212858	24.587399	-9.249630	16.598355	149.769259	89.354719	-22.599249	-3.134237	23.697067	-4.668546	-0.429117	148.882049	89.188997	-0.989983	2.619584
2.183333	-2.156280	-4.944734	80.863384	0.157337	1.062411	0.324711	-3.999244	2.640550	9.319358	1.335193	0.023304	21.693410	-5.655738	0.000000	-3.305947	-3.070642	-11.661198	3.711714	0.064782	26.326072	8.667105	0.000000	-0.390358	0.176146	-0.233296	-0.724934	0.234274	-0.247877	-0.641320	0.428280	-0.247877	-0.446141	0.428280	-0.204134	-0.362487	0.359196	-0.189553	-0.223051	0.272849	-0.174972	-2.788290	1.992594	-1.297525	0.000000	0.000000	-1.622035	-0.576027	2.070014	24.399334	-9.374474	16.531146	149.772029	89.347148	-23.053267	-3.559636	23.390495	-4.757345	-0.483443	148.991179	89.140152	-1.123353	3.134993
2.200000	-2.141923	-4.952320	80.871587	0.157422	1.062602	0.324536	-3.937282	2.655254	9.097041	1.483833	0.025898	21.724892	-5.508628	0.000000	-3.278662	-3.086949	-11.370943	3.781487	0.065999	26.325324	8.453607	0.000000	-0.383602	0.174667	-0.205694	-0.712388	0.232307	-0.218550	-0.630220	0.424686	-0.218550	-0.438419	0.424686	-0.179983	-0.356213	0.356181	-0.167127	-0.219190	0.270559	-0.154271	-2.740032	1.975870	-1.144011	0.000000	0.000000	-1.448627	-0.567117	1.808527	24.262326	-9.480222	16.439484	149.774768	89.332536	-23.551304	-3.984672	23.244250	-4.795378	-0.408310	148.998513	89.093674	-1.256115	3.599059
2.216667	-2.118771	-4.968113	80.897566	0.157414	1.062749	0.324358	-3.876044	2.675172	8.839240	1.611868	0.028132	21.771615	-5.298433	0.000000	-3.257872	-3.105872	-10.985519	3.821973	0.066706	26.294932	8.094251	0.000000	-0.376424	0.174459	-0.185348	-0.699057	0.232030	-0.196933	-0.618427	0.424179	-0.196933	-0.430215	0.424179	-0.162180	-0.349548	0.355756	-0.150595	-0.215089	0.270236	-0.139011	-2.688760	1.973510	-1.030851	0.000000	0.000000	-1.164516	-0.623037	1.468191	24.178063	-9.561480	16.318372	149.778411	89.320798	-23.973153	-4.330864	23.233839	-4.790635	-0.218578	148.949872	89.055626	-1.473443	4.009468
2.233333	-2.088646	-4.982504	80.970378	0.157315	1.062879	0.324232	-3.815056	2.701469	8.428504	1.738366	0.030340	21.863766	-4.897833	0.000000	-3.244052	-3.129090	-10.517831	3.832924	0.066897	26.220219	7.625543	0.000000	-0.371509	0.175155	-0.180182	-0.689930	0.232956	-0.191443	-0.610353	0.425872	-0.191443	-0.424598	0.425872	-0.157659	-0.344984	0.357176	-0.146398	-0.212281	0.271315	-0.135136	-2.653655	1.981388	-1.002116	0.000000	0.000000	-0.829042	-0.767646	1.056195	24.180790	-9.612470	16.285952	149.782064	89.305850	-24.579726	-4.613077	23.326624	-4.779498	0.076453	148.866453	89.023992	-1.874617	4.211345
2.250000	-2.072000	-5.014996	81.033967	0.157214	1.062968	0.324119	-3.744798	2.716405	8.135638	1.831354	0.031963	21.925614	-4.614422	0.000000	-3.226129	-3.140441	-10.196358	3.808383	0.066469	26.153577	7.300508	0.000000	-0.363716	0.174308	-0.177237	-0.675457	0.231830	-0.188314	-0.597549	0.423813	-0.188314	-0.415691	0.423813	-0.155082	-0.337747	0.355449	-0.144005	-0.207827	0.270003	-0.132928	-2.597986	1.971809	-0.985739	0.000000	0.000000	-0.516697	-0.947821	0.618286	24.195972	-9.627634	16.278529	149.783291	89.292097	-25.194574	-4.938561	23.473143	-4.712855	0.296638	148.819982	88.999066	-1.947632	4.543646
2.266667	-2.055935	-5.041102	81.094384	0.157095	1.063043	0.324048	-3.690641	2.729019	7.924727	1.891603	0.033015	21.964754	-4.392382	0.000000	-3.220328	-3.146738	-9.883193	3.760561	0.065634	26.101246	6.933887	0.000000	-0.358126	0.173126	-0.174638	-0.665076	0.230257	-0.185553	-0.588365	0.420937	-0.185553	-0.409302	0.420937	-0.152809	-0.332556	0.353038	-0.141894	-0.204633	0.268171	-0.130979	-2.558059	1.958430	-0.971286	0.000000	0.000000	-0.232947	-1.136671	0.171878	24.216100	-9.613927	16.200387	149.783747	89.280223	-25.598808	-5.258909	23.651367	-4.611842	0.511978	148.811206	88.981743	-1.950439	4.896959
2.283333	-2.043671	-5.060937	81.159568	0.156956	1.063106	0.324014	-3.654700	2.738653	7.773760	1.915320	0.033429	21.990918	-4.218424	0.000000	-3.227006	-3.146323	-9.581309	3.680441	0.064236	26.062137	6.564598	0.000000	-0.354205	0.172272	-0.175886	-0.657794	0.229122	-0.186879	-0.581923	0.418862	-0.186879	-0.404821	0.418862	-0.153900	-0.328915	0.351297	-0.142907	-0.202393	0.266849	-0.131914	-2.530051	1.948773	-0.978224	0.000000	0.000000	0.002812	-1.334391	-0.204807	24.253944	-9.587361	16.111346	149.783418	89.273739	-25.898180	-5.510749	23.809396	-4.494010	0.667682	148.844282	88.972074	-1.882674	5.204880
2.300000	-2.043147	-5.078324	81.211021	0.156837	1.063142	0.324028	-3.630067	2.737502	7.719221	1.905446	0.033256	21.996698	-4.112714	0.000000	-3.234570	-3.132662	-9.306950	3.582312	0.062523	26.043289	6.184059	0.000000	-0.351447	0.169963	-0.172087	-0.652671	0.226051	-0.182843	-0.577391	0.413249	-0.182843	-0.401668	0.413249	-0.150576	-0.326353	0.346589	-0.139821	-0.200817	0.263273	-0.129065	-2.510347	1.922661	-0.957098	0.000000	0.000000	0.216316	-1.523428	-0.558971	24.267427	-9.561740	15.942643	149.782393	89.271580	-25.967675	-5.772977	23.955695	-4.364088	0.788300	148.903018	88.969141	-1.764479	5.523011
2.316667	-2.053974	-5.087051	81.247884	0.156725	1.063152	0.324075	-3.625480	2.724762	7.757010	1.860221	0.032467	21.988331	-4.076056	0.000000	-3.247677	-3.105022	-9.069812	3.475876	0.060665	26.041529	5.806803	0.000000	-0.350363	0.166964	-0.163040	-0.650660	0.222063	-0.173230	-0.575612	0.405957	-0.173230	-0.400430	0.405957	-0.142660	-0.325347	0.340474	-0.132470	-0.200198	0.258628	-0.122280	-2.502611	1.888735	-0.906779	0.000000	0.000000	0.391947	-1.699834	-0.870160	24.250942	-9.546355	15.720366	149.780623	89.272926	-25.819469	-6.019535	24.077086	-4.229829	0.865646	148.969008	88.972379	-1.605653	5.833872
2.333333	-2.064632	-5.089350	81.268065	0.156640	1.063120	0.324143	-3.640705	2.712828	7.825448	1.783727	0.031132	21.987992	-4.020851	0.000000	-3.260592	-3.077239	-8.825822	3.382119	0.059029	26.050417	5.367711	0.000000	-0.350422	0.164933	-0.149816	-0.650769	0.219360	-0.159180	-0.575708	0.401017	-0.159180	-0.400497	0.401017	-0.131089	-0.325402	0.336330	-0.121726	-0.200231	0.255481	-0.112362	-2.503029	1.865750	-0.833234	0.000000	0.000000	0.523945	-1.815508	-1.045817	24.213490	-9.555037	15.495598	149.778734	89.279294	-25.517632	-6.213873	24.173223	-4.090844	0.871688	149.059978	88.980868	-1.405312	6.314749
2.350000	-2.085079	-5.085815	81.259700	0.156596	1.063053	0.324223	-3.673367	2.691799	8.011238	1.677294	0.029274	21.963308	-4.074446	0.000000	-3.276788	-3.039670	-8.678607	3.297790	0.057557	26.067474	5.000286	0.000000	-0.350948	0.162848	-0.127336	-0.651745	0.216588	-0.135295	-0.576572	0.395950	-0.135295	-0.401098	0.395950	-0.111419	-0.325890	0.332081	-0.103461	-0.200532	0.252252	-0.095502	-2.506786	1.842175	-0.708205	0.000000	0.000000	0.607403	-1.935345	-1.171996	24.133590	-9.581392	15.267068	149.777879	89.290355	-25.066339	-6.365203	24.243718	-3.978324	0.860373	149.108802	88.995085	-1.216235	6.677651
